<svg xmlns="http://www.w3.org/2000/svg"  viewBox="0 0 100 100" width="50px" height="50px" baseProfile="basic"><circle cx="50.125" cy="49.958" r="37" fill="#cee1f4"/><circle cx="13.125" cy="28.958" r="2" fill="#78a0cf"/><circle cx="77.125" cy="12.958" r="1" fill="#f1bc19"/><circle cx="83.125" cy="14.958" r="4" fill="#f1bc19"/><circle cx="87.125" cy="23.958" r="2" fill="#78a0cf"/><circle cx="81.125" cy="75.958" r="2" fill="#fbcd59"/><circle cx="15.125" cy="65.958" r="4" fill="#fbcd59"/><circle cx="25.125" cy="86.958" r="2" fill="#78a0cf"/><circle cx="82.125" cy="37.958" r="1" fill="#fff"/><circle cx="26.125" cy="73.958" r="1" fill="#f1bc19"/><path fill="#fdfcef" d="M35.085,71.3c-4.072,0-7.385-3.312-7.385-7.385v-29.83c0-4.072,3.312-7.385,7.385-7.385h29.83 c4.072,0,7.385,3.312,7.385,7.385v29.83c0,4.072-3.312,7.385-7.385,7.385H35.085z"/><path fill="#472b29" d="M64.915,27.4c3.686,0,6.685,2.999,6.685,6.685v29.83c0,3.686-2.999,6.685-6.685,6.685h-29.83 c-3.686,0-6.685-2.999-6.685-6.685v-29.83c0-3.686,2.999-6.685,6.685-6.685H64.915 M64.915,26h-29.83C30.62,26,27,29.62,27,34.085 v29.83C27,68.38,30.62,72,35.085,72h29.83C69.38,72,73,68.38,73,63.915v-29.83C73,29.62,69.38,26,64.915,26L64.915,26z"/><path fill="#472b29" d="M30.5,61c-0.276,0-0.5-0.224-0.5-0.5v-11c0-0.276,0.224-0.5,0.5-0.5s0.5,0.224,0.5,0.5v11 C31,60.776,30.776,61,30.5,61z"/><path fill="#472b29" d="M50.5,69h-6c-0.276,0-0.5-0.224-0.5-0.5s0.224-0.5,0.5-0.5h6c0.276,0,0.5,0.224,0.5,0.5 S50.776,69,50.5,69z"/><path fill="#472b29" d="M63.839,69H54.5c-0.276,0-0.5-0.224-0.5-0.5s0.224-0.5,0.5-0.5h9.339C66.685,68,69,65.685,69,62.839 V54.5c0-0.276,0.224-0.5,0.5-0.5s0.5,0.224,0.5,0.5v8.339C70,66.236,67.236,69,63.839,69z"/><path fill="#472b29" d="M41.5,69h-5.339C32.764,69,30,66.236,30,62.839c0-0.276,0.224-0.5,0.5-0.5s0.5,0.224,0.5,0.5 C31,65.685,33.315,68,36.161,68H41.5c0.276,0,0.5,0.224,0.5,0.5S41.776,69,41.5,69z"/><path fill="#472b29" d="M69.5,53c-0.276,0-0.5-0.224-0.5-0.5V35.161C69,32.315,66.685,30,63.839,30H54.5 c-0.276,0-0.5-0.224-0.5-0.5s0.224-0.5,0.5-0.5h9.339C67.236,29,70,31.764,70,35.161V52.5C70,52.776,69.776,53,69.5,53z"/><path fill="#472b29" d="M50.5,30h-7c-0.276,0-0.5-0.224-0.5-0.5s0.224-0.5,0.5-0.5h7c0.276,0,0.5,0.224,0.5,0.5 S50.776,30,50.5,30z"/><path fill="#472b29" d="M30.5,48c-0.276,0-0.5-0.224-0.5-0.5V35.161C30,31.764,32.764,29,36.161,29H40.5 c0.276,0,0.5,0.224,0.5,0.5S40.776,30,40.5,30h-4.339C33.315,30,31,32.315,31,35.161V47.5C31,47.776,30.776,48,30.5,48z"/><g><path fill="#f47c22" d="M65.303,44.702L62,42.177v-4.496C62,37.305,61.695,37,61.319,37h-1.638 C59.305,37,59,37.305,59,37.681v2.202l-7.963-6.089c-0.612-0.468-1.462-0.468-2.074,0L34.697,44.702 C34.148,45.122,34.445,46,35.137,46H38v14.404C38,61.286,38.714,62,39.596,62h20.808C61.286,62,62,61.286,62,60.404V46h2.863 C65.555,46,65.852,45.122,65.303,44.702z"/></g><g><path fill="#f5921e" d="M59.181,60H40.819C40.367,60,40,59.633,40,59.181V43.614c0-0.26,0.124-0.505,0.334-0.66l9.252-6.807 c0.291-0.214,0.687-0.212,0.976,0.003l9.11,6.803C59.878,43.108,60,43.352,60,43.61v15.571C60,59.633,59.633,60,59.181,60z"/></g><g><path fill="#efa21b" d="M57.505,58H42.495C42.221,58,42,57.779,42,57.505V44.698c0-0.158,0.076-0.307,0.204-0.4l7.546-5.474 c0.174-0.126,0.41-0.126,0.583,0.001l7.464,5.473C57.925,44.391,58,44.539,58,44.697v12.809C58,57.779,57.779,58,57.505,58z"/></g><g><path fill="#f9b450" d="M55.328,56.047H44.672c-0.371,0-0.672-0.301-0.672-0.672v-9.526c0-0.219,0.106-0.423,0.285-0.549 l5.338-3.764c0.233-0.164,0.543-0.164,0.776,0.001l5.318,3.764C55.894,45.425,56,45.63,56,45.848v9.527 C56,55.746,55.699,56.047,55.328,56.047z"/></g><g><path fill="#fcc938" d="M53.388,54h-6.777C46.274,54,46,53.726,46,53.388v-6.331c0-0.196,0.094-0.38,0.252-0.495l3.395-2.47 c0.215-0.156,0.506-0.156,0.721,0.001l3.382,2.469C53.907,46.677,54,46.861,54,47.056v6.332C54,53.726,53.726,54,53.388,54z"/></g><g><path fill="#fcd98b" d="M51.473,52h-2.947C48.236,52,48,51.764,48,51.473v-3.268c0-0.175,0.087-0.339,0.232-0.437 l1.476-0.995c0.178-0.12,0.411-0.12,0.589,0l1.47,0.995C51.913,47.866,52,48.03,52,48.205v3.269C52,51.764,51.764,52,51.473,52z"/></g><g><path fill="#472b29" d="M62,55.856c-0.138,0-0.25-0.112-0.25-0.25V46c0-0.138,0.112-0.25,0.25-0.25h2.863 c0.25,0,0.396-0.167,0.448-0.322c0.053-0.156,0.038-0.375-0.16-0.527l-3.303-2.525c-0.062-0.047-0.099-0.121-0.099-0.199v-4.496 c0-0.237-0.193-0.431-0.431-0.431h-1.639c-0.237,0-0.431,0.193-0.431,0.431v2.202c0,0.095-0.054,0.182-0.14,0.224 c-0.084,0.043-0.186,0.033-0.263-0.025l-7.963-6.089c-0.52-0.398-1.25-0.398-1.77,0l-5.295,4.049 c-0.111,0.084-0.267,0.062-0.351-0.047c-0.084-0.11-0.063-0.267,0.046-0.351l5.295-4.049c0.701-0.535,1.678-0.535,2.379,0 l7.561,5.782v-1.696c0-0.513,0.418-0.931,0.931-0.931h1.639c0.513,0,0.931,0.417,0.931,0.931v4.373l3.204,2.45 c0.337,0.257,0.467,0.683,0.331,1.085s-0.498,0.662-0.922,0.662H62.25v9.356C62.25,55.745,62.138,55.856,62,55.856z"/></g><g><path fill="#472b29" d="M60.404,62.25H39.596c-1.018,0-1.846-0.828-1.846-1.846v-9.106c0-0.138,0.112-0.25,0.25-0.25 s0.25,0.112,0.25,0.25v9.106c0,0.742,0.604,1.346,1.346,1.346h20.809c0.742,0,1.346-0.604,1.346-1.346v-3.027 c0-0.138,0.112-0.25,0.25-0.25s0.25,0.112,0.25,0.25v3.027C62.25,61.422,61.422,62.25,60.404,62.25z"/></g><g><path fill="#472b29" d="M38,49.729c-0.138,0-0.25-0.112-0.25-0.25V46.25h-2.613c-0.424,0-0.786-0.26-0.922-0.662 s-0.006-0.828,0.331-1.085l2.962-2.266c0.112-0.084,0.267-0.062,0.351,0.047c0.084,0.11,0.063,0.267-0.046,0.351l-2.963,2.266 c-0.199,0.152-0.214,0.372-0.161,0.527c0.053,0.155,0.198,0.322,0.448,0.322H38c0.138,0,0.25,0.112,0.25,0.25v3.479 C38.25,49.617,38.138,49.729,38,49.729z"/></g><g><path fill="#472b29" d="M39.165,41.535c-0.075,0-0.149-0.034-0.198-0.098c-0.084-0.11-0.063-0.267,0.047-0.351l2.875-2.198 c0.109-0.084,0.267-0.062,0.35,0.047c0.084,0.11,0.063,0.267-0.047,0.351l-2.875,2.198C39.271,41.519,39.218,41.535,39.165,41.535z"/></g></svg>